<svg width="217" height="108" viewBox="0 0 217 108" fill="none" xmlns="http://www.w3.org/2000/svg">
<path d="M18.8426 76.0539C13.7378 76.0539 9.63399 74.6275 6.5311 71.7749C3.47825 68.8722 1.95182 64.7683 1.95182 59.4634H11.5608C11.6108 61.9157 12.1864 63.8675 13.2874 65.3188C14.3884 66.7702 16.1651 67.4959 18.6174 67.4959C20.9195 67.4959 22.5961 66.8202 23.6471 65.469C24.6981 64.0677 25.2235 62.241 25.2235 59.9889V22.604H34.8325V59.9889C34.8325 65.1437 33.3812 69.1224 30.4785 71.925C27.6258 74.6776 23.7472 76.0539 18.8426 76.0539ZM45.1341 32.1379C43.3825 32.1379 41.9311 31.6124 40.7801 30.5614C39.679 29.5104 39.1285 28.1842 39.1285 26.5827C39.1285 24.9812 39.679 23.68 40.7801 22.679C41.9311 21.628 43.3825 21.1026 45.1341 21.1026C46.8858 21.1026 48.3121 21.628 49.4131 22.679C50.5642 23.68 51.1397 24.9812 51.1397 26.5827C51.1397 28.1842 50.5642 29.5104 49.4131 30.5614C48.3121 31.6124 46.8858 32.1379 45.1341 32.1379ZM40.3296 75.153V37.9183H49.9386V75.153H40.3296ZM55.0885 91.6684V37.9183H63.6465L64.6975 43.2482C65.8986 41.5967 67.4751 40.1453 69.4269 38.8942C71.4288 37.643 74.0062 37.0174 77.1591 37.0174C80.6624 37.0174 83.7903 37.8682 86.5429 39.5698C89.2955 41.2714 91.4725 43.5986 93.074 46.5513C94.6755 49.5041 95.4762 52.8572 95.4762 56.6107C95.4762 60.3642 94.6755 63.7173 93.074 66.6701C91.4725 69.5728 89.2955 71.875 86.5429 73.5765C83.7903 75.2281 80.6624 76.0539 77.1591 76.0539C74.3565 76.0539 71.9042 75.5284 69.8023 74.4774C67.7003 73.4264 65.9987 71.95 64.6975 70.0482V91.6684H55.0885ZM75.1322 67.646C78.1851 67.646 80.7125 66.62 82.7143 64.5681C84.7162 62.5162 85.7171 59.8637 85.7171 56.6107C85.7171 53.3577 84.7162 50.6802 82.7143 48.5782C80.7125 46.4762 78.1851 45.4253 75.1322 45.4253C72.0293 45.4253 69.477 46.4762 67.4751 48.5782C65.5233 50.6301 64.5474 53.2826 64.5474 56.5356C64.5474 59.7887 65.5233 62.4662 67.4751 64.5681C69.477 66.62 72.0293 67.646 75.1322 67.646ZM179.154 75.153V21.1026H188.763V53.0073L201.975 37.9183H213.386L198.146 54.8841L215.863 75.153H203.852L188.763 56.4606V75.153H179.154Z" fill="white"/>
<path d="M117.272 76.0539C113.519 76.0539 110.191 75.2531 107.288 73.6516C104.385 72.0501 102.108 69.798 100.457 66.8953C98.8051 63.9926 97.9794 60.6395 97.9794 56.8359C97.9794 52.9823 98.7801 49.5541 100.382 46.5513C102.033 43.5485 104.285 41.2213 107.138 39.5698C110.041 37.8682 113.444 37.0174 117.347 37.0174C121.001 37.0174 124.229 37.8182 127.031 39.4197C129.834 41.0212 132.011 43.2232 133.563 46.0258C135.164 48.7784 135.965 51.8563 135.965 55.2594C135.965 55.81 135.94 56.3855 135.89 56.9861C135.89 57.5866 135.865 58.2122 135.815 58.8628H107.513C107.713 61.7655 108.714 64.0426 110.516 65.6942C112.368 67.3457 114.595 68.1715 117.197 68.1715C119.149 68.1715 120.776 67.7461 122.077 66.8953C123.428 65.9945 124.429 64.8434 125.08 63.4421H134.839C134.138 65.7943 132.962 67.9463 131.31 69.8981C129.709 71.7999 127.707 73.3013 125.305 74.4023C122.953 75.5033 120.275 76.0539 117.272 76.0539ZM117.347 44.8247C114.995 44.8247 112.918 45.5003 111.117 46.8516C109.315 48.1528 108.164 50.1547 107.663 52.8572H126.206C126.056 50.4049 125.155 48.4531 123.503 47.0017C121.852 45.5504 119.8 44.8247 117.347 44.8247ZM157.259 76.0539C153.505 76.0539 150.177 75.2531 147.275 73.6516C144.372 72.0501 142.095 69.798 140.443 66.8953C138.792 63.9926 137.966 60.6395 137.966 56.8359C137.966 52.9823 138.767 49.5541 140.368 46.5513C142.02 43.5485 144.272 41.2213 147.124 39.5698C150.027 37.8682 153.43 37.0174 157.334 37.0174C160.987 37.0174 164.215 37.8182 167.018 39.4197C169.821 41.0212 171.998 43.2232 173.549 46.0258C175.151 48.7784 175.951 51.8563 175.951 55.2594C175.951 55.81 175.926 56.3855 175.876 56.9861C175.876 57.5866 175.851 58.2122 175.801 58.8628H147.5C147.7 61.7655 148.701 64.0426 150.503 65.6942C152.354 67.3457 154.581 68.1715 157.184 68.1715C159.136 68.1715 160.762 67.7461 162.063 66.8953C163.415 65.9945 164.416 64.8434 165.066 63.4421H174.825C174.125 65.7943 172.949 67.9463 171.297 69.8981C169.696 71.7999 167.694 73.3013 165.291 74.4023C162.939 75.5033 160.262 76.0539 157.259 76.0539ZM157.334 44.8247C154.982 44.8247 152.905 45.5003 151.103 46.8516C149.301 48.1528 148.15 50.1547 147.65 52.8572H166.192C166.042 50.4049 165.141 48.4531 163.49 47.0017C161.838 45.5504 159.786 44.8247 157.334 44.8247Z" fill="url(#paint0_radial)"/>
<path d="M163 81C163 83.8891 162.315 86.7499 160.983 89.419C159.651 92.0882 157.699 94.5135 155.238 96.5563C152.778 98.5992 149.856 100.22 146.641 101.325C143.426 102.431 139.98 103 136.5 103C133.02 103 129.574 102.431 126.359 101.325C123.144 100.22 120.222 98.5992 117.762 96.5563C115.301 94.5135 113.349 92.0882 112.017 89.419C110.685 86.7499 110 83.8891 110 81" stroke="url(#paint1_radial)" stroke-width="10"/>
<defs>
<radialGradient id="paint0_radial" cx="0" cy="0" r="1" gradientUnits="userSpaceOnUse" gradientTransform="translate(158.048 97.8469) rotate(-150.089) scale(195.913 179.615)">
<stop stop-color="#FFB8E0"/>
<stop offset="0.38895" stop-color="#BE9EFF"/>
<stop offset="0.673962" stop-color="#88C0FC"/>
<stop offset="1" stop-color="#86FF99"/>
</radialGradient>
<radialGradient id="paint1_radial" cx="0" cy="0" r="1" gradientUnits="userSpaceOnUse" gradientTransform="translate(148.602 103) rotate(-152.057) scale(46.9497 41.2235)">
<stop stop-color="#FFB8E0"/>
<stop offset="0.38895" stop-color="#BE9EFF"/>
<stop offset="0.673962" stop-color="#88C0FC"/>
<stop offset="1" stop-color="#86FF99"/>
</radialGradient>
</defs>
</svg>
